# xmcd
#
# Track frame offsets:
#	150
#	19687
#	38284
#	60006
#	84191
#	100443
#	121555
#	146055
#	172434
#	196381
#	217405
#
# Disc length: 3157 seconds
#
# Revision: 1
# Processed by: cddbd v1.5.1PL0 Copyright (c) Steve Scherf et al.
# Submitted via: CDex 1.50Beta5
#
DISCID=900c530b
DTITLE=夏川りみ - てぃだ〜太陽・風ぬ想い〜
DYEAR=2002
DGENRE=Pop
TTITLE0=安里屋ユンタ
TTITLE1=赤花ひとつ
TTITLE2=ファムレウタ(子守唄)
TTITLE3=心のかたち
TTITLE4=島唄
TTITLE5=月の夜
TTITLE6=楽園〜マカル・サリ〜
TTITLE7=赤田首里殿内
TTITLE8=月のかほり
TTITLE9=芭蕉布
TTITLE10=涙そうそう
EXTD=
EXTT0=
EXTT1=
EXTT2=
EXTT3=
EXTT4=
EXTT5=
EXTT6=
EXTT7=
EXTT8=
EXTT9=
EXTT10=
PLAYORDER=
